# xmcd
#
# Track frame offsets: 
#        150
#        22057
#        35669
#        56369
#
# Disc length: 1012 seconds
#
# Revision: 0
# Processed by: cddbd v1.5.2PL0 Copyright (c) Steve Scherf et al.
# Submitted via: ExactAudioCopy v0.99pb4
#
DISCID=2e03f204
DTITLE=Angie Marie and The Outskirts - Gotta Start Somewhere
DYEAR=2010
DGENRE=Country
TTITLE0=Never Too Late
TTITLE1=Back On The Market
TTITLE2=All Of A Sudden
TTITLE3=Good Friends and Goodbyes
EXTD=
EXTT0=
EXTT1=
EXTT2=
EXTT3=
PLAYORDER=
